<svg xmlns="http://www.w3.org/2000/svg" viewBox="0 0 64 64" role="img" aria-label="Food Stall System logo">
  <defs>
    <linearGradient id="a" x1="12" y1="10" x2="52" y2="54" gradientUnits="userSpaceOnUse">
      <stop offset="0" stop-color="#ff8a3d"/>
      <stop offset="1" stop-color="#ff3d6e"/>
    </linearGradient>
  </defs>
  <path fill="#0b0b10" d="M0 0h64v64H0z"/>
  <path fill="#14141d" d="M6 14h52a4 4 0 0 1 4 4v34a6 6 0 0 1-6 6H12a6 6 0 0 1-6-6V18a4 4 0 0 1 4-4z"/>
  <path fill="url(#a)" d="M12 18h40a4 4 0 0 1 4 4v8H8v-8a4 4 0 0 1 4-4z"/>
  <path fill="#f6f6ff" opacity="0.95" d="M16 30h32v18a4 4 0 0 1-4 4H20a4 4 0 0 1-4-4V30z"/>
  <path fill="#0b0b10" opacity="0.12" d="M16 30h32v4H16z"/>
  <path fill="#0b0b10" opacity="0.14" d="M22 38h20v2H22z"/>
  <path fill="#0b0b10" opacity="0.14" d="M22 43h16v2H22z"/>
  <circle cx="20" cy="26" r="2" fill="#f6f6ff" opacity="0.95"/>
  <circle cx="32" cy="26" r="2" fill="#f6f6ff" opacity="0.95"/>
  <circle cx="44" cy="26" r="2" fill="#f6f6ff" opacity="0.95"/>
</svg>
